<mxfile host="app.diagrams.net" agent="Mozilla/5.0 (Windows NT 10.0; Win64; x64) AppleWebKit/537.36 (KHTML, like Gecko) Chrome/131.0.0.0 Safari/537.36" version="25.0.3">
  <diagram name="Page-1" id="yLReXwHr22yJk2KDq0IS">
    <mxGraphModel dx="2100" dy="1044" grid="1" gridSize="10" guides="1" tooltips="1" connect="1" arrows="1" fold="1" page="1" pageScale="1" pageWidth="850" pageHeight="1100" math="0" shadow="0">
      <root>
        <mxCell id="0" />
        <mxCell id="1" parent="0" />
        <mxCell id="6W4QoT8AuajTi3IHCfQw-1" value="Système de Réservation de Voyages" style="html=1;overflow=block;blockSpacing=1;whiteSpace=wrap;container=1;pointerEvents=0;collapsible=0;recursiveResize=0;fontSize=14;spacing=0;verticalAlign=bottom;strokeColor=#333333;strokeOpacity=100;fillOpacity=0;rounded=1;absoluteArcSize=1;arcSize=7.5;fillColor=#000000;strokeWidth=0.8;lucidId=.Q4M__F_tF__;" vertex="1" parent="1">
          <mxGeometry x="170" y="80" width="915" height="1650" as="geometry" />
        </mxCell>
        <mxCell id="6W4QoT8AuajTi3IHCfQw-41" value="Réservation et modification" style="html=1;overflow=block;blockSpacing=1;whiteSpace=wrap;ellipse;fontSize=16;align=center;spacing=0;verticalAlign=middle;strokeColor=#ffffff;strokeOpacity=100;fillOpacity=100;rounded=1;absoluteArcSize=1;arcSize=7.5;fillColor=#3278cc;strokeWidth=0.8;lucidId=l2tDh2iOXQqX;" vertex="1" parent="6W4QoT8AuajTi3IHCfQw-1">
          <mxGeometry x="210" y="170" width="120" height="90" as="geometry" />
        </mxCell>
        <mxCell id="6W4QoT8AuajTi3IHCfQw-4" value="Consultation du catalogue" style="html=1;overflow=block;blockSpacing=1;whiteSpace=wrap;ellipse;fontSize=14;align=center;spacing=0;verticalAlign=middle;strokeColor=#ffffff;strokeOpacity=100;fillOpacity=100;rounded=1;absoluteArcSize=1;arcSize=7.5;fillColor=#3278cc;strokeWidth=0.8;lucidId=.Q4M82ccuo9S;" vertex="1" parent="6W4QoT8AuajTi3IHCfQw-1">
          <mxGeometry x="380" y="20" width="120" height="90" as="geometry" />
        </mxCell>
        <mxCell id="6W4QoT8AuajTi3IHCfQw-82" value="s incrire" style="html=1;overflow=block;blockSpacing=1;whiteSpace=wrap;ellipse;fontSize=14;align=center;spacing=0;verticalAlign=middle;strokeColor=#ffffff;strokeOpacity=100;fillOpacity=100;rounded=1;absoluteArcSize=1;arcSize=7.5;fillColor=#3278cc;strokeWidth=0.8;lucidId=.Q4M82ccuo9S;" vertex="1" parent="6W4QoT8AuajTi3IHCfQw-1">
          <mxGeometry x="50" width="120" height="90" as="geometry" />
        </mxCell>
        <mxCell id="6W4QoT8AuajTi3IHCfQw-63" value="Recherche  des offres" style="html=1;overflow=block;blockSpacing=1;whiteSpace=wrap;ellipse;fontSize=16;align=center;spacing=0;verticalAlign=middle;strokeColor=#ffffff;strokeOpacity=100;fillOpacity=100;rounded=1;absoluteArcSize=1;arcSize=7.5;fillColor=#3278cc;strokeWidth=0.8;lucidId=wduDFV2WwzAc;" vertex="1" parent="6W4QoT8AuajTi3IHCfQw-1">
          <mxGeometry x="250" y="310" width="120" height="90" as="geometry" />
        </mxCell>
        <mxCell id="6W4QoT8AuajTi3IHCfQw-42" value="Personnalisation" style="html=1;overflow=block;blockSpacing=1;whiteSpace=wrap;ellipse;fontSize=16;align=center;spacing=0;verticalAlign=middle;strokeColor=#ffffff;strokeOpacity=100;fillOpacity=100;rounded=1;absoluteArcSize=1;arcSize=7.5;fillColor=#3278cc;strokeWidth=0.8;lucidId=P1tDUjzM05Ek;" vertex="1" parent="6W4QoT8AuajTi3IHCfQw-1">
          <mxGeometry x="190" y="430" width="120" height="90" as="geometry" />
        </mxCell>
        <mxCell id="6W4QoT8AuajTi3IHCfQw-78" value="realiser un reservation en ligne" style="html=1;overflow=block;blockSpacing=1;whiteSpace=wrap;ellipse;fontSize=13;align=center;spacing=0;verticalAlign=middle;strokeColor=#ffffff;strokeOpacity=100;fillOpacity=100;rounded=1;absoluteArcSize=1;arcSize=7.5;fillColor=#3278cc;strokeWidth=0.8;lucidId=yfuD5ivr1SDQ;" vertex="1" parent="6W4QoT8AuajTi3IHCfQw-1">
          <mxGeometry x="190" y="540" width="120" height="90" as="geometry" />
        </mxCell>
        <mxCell id="6W4QoT8AuajTi3IHCfQw-67" value="modifier reservation" style="html=1;overflow=block;blockSpacing=1;whiteSpace=wrap;ellipse;fontSize=16;align=center;spacing=0;verticalAlign=middle;strokeColor=#ffffff;strokeOpacity=100;fillOpacity=100;rounded=1;absoluteArcSize=1;arcSize=7.5;fillColor=#3278cc;strokeWidth=0.8;lucidId=aguDIjFiDDDF;" vertex="1" parent="6W4QoT8AuajTi3IHCfQw-1">
          <mxGeometry x="20" y="650" width="120" height="90" as="geometry" />
        </mxCell>
        <mxCell id="6W4QoT8AuajTi3IHCfQw-94" value="" style="html=1;jettySize=18;whiteSpace=wrap;fontSize=13;strokeColor=#333333;strokeOpacity=100;dashed=1;fixDash=1;strokeWidth=0.8;rounded=0;startArrow=none;endArrow=open;exitX=0.616;exitY=0.044;exitPerimeter=0;entryX=0.5;entryY=1;lucidId=y~tDq5_zpgtW;exitDx=0;exitDy=0;entryDx=0;entryDy=0;" edge="1" parent="6W4QoT8AuajTi3IHCfQw-1" source="6W4QoT8AuajTi3IHCfQw-63" target="6W4QoT8AuajTi3IHCfQw-4">
          <mxGeometry width="100" height="100" relative="1" as="geometry">
            <Array as="points" />
            <mxPoint x="322" y="258" as="sourcePoint" />
            <mxPoint x="703" y="518" as="targetPoint" />
          </mxGeometry>
        </mxCell>
        <mxCell id="6W4QoT8AuajTi3IHCfQw-95" value="&amp;lt;&amp;lt;include&amp;gt;&amp;gt;" style="text;html=1;resizable=0;labelBackgroundColor=default;align=center;verticalAlign=middle;fontStyle=2;fontColor=#333333;fontSize=13.3;" vertex="1" parent="6W4QoT8AuajTi3IHCfQw-94">
          <mxGeometry x="-0.20622898808546797" relative="1" as="geometry" />
        </mxCell>
        <mxCell id="6W4QoT8AuajTi3IHCfQw-21" value="Authentifié" style="html=1;overflow=block;blockSpacing=1;whiteSpace=wrap;ellipse;fontSize=16;align=center;spacing=0;verticalAlign=middle;strokeColor=#ffffff;strokeOpacity=100;fillOpacity=100;rounded=1;absoluteArcSize=1;arcSize=7.5;fillColor=#3278cc;strokeWidth=0.8;lucidId=wRtDWMIVUkhB;" vertex="1" parent="6W4QoT8AuajTi3IHCfQw-1">
          <mxGeometry x="670" y="530" width="120" height="90" as="geometry" />
        </mxCell>
        <mxCell id="6W4QoT8AuajTi3IHCfQw-76" value="" style="html=1;jettySize=18;whiteSpace=wrap;fontSize=13;strokeColor=#333333;strokeOpacity=100;dashed=1;fixDash=1;strokeWidth=0.8;rounded=0;startArrow=none;endArrow=open;exitX=0.994;exitY=0.594;exitPerimeter=0;entryX=0.006;entryY=0.406;entryPerimeter=0;lucidId=2guDETDGXmMz;" edge="1" parent="6W4QoT8AuajTi3IHCfQw-1" source="6W4QoT8AuajTi3IHCfQw-42" target="6W4QoT8AuajTi3IHCfQw-21">
          <mxGeometry width="100" height="100" relative="1" as="geometry">
            <Array as="points" />
          </mxGeometry>
        </mxCell>
        <mxCell id="6W4QoT8AuajTi3IHCfQw-77" value="&amp;lt;&amp;lt;include&amp;gt;&amp;gt;" style="text;html=1;resizable=0;labelBackgroundColor=default;align=center;verticalAlign=middle;fontStyle=2;fontColor=#333333;fontSize=13.3;" vertex="1" parent="6W4QoT8AuajTi3IHCfQw-76">
          <mxGeometry x="-0.20622898808546797" relative="1" as="geometry" />
        </mxCell>
        <mxCell id="6W4QoT8AuajTi3IHCfQw-72" value="" style="html=1;jettySize=18;whiteSpace=wrap;fontSize=13;strokeColor=#333333;strokeOpacity=100;dashed=1;fixDash=1;strokeWidth=0.8;rounded=0;startArrow=none;endArrow=open;entryX=-0.003;entryY=0.5;entryPerimeter=0;lucidId=IguD0MQruVUA;" edge="1" parent="6W4QoT8AuajTi3IHCfQw-1" source="6W4QoT8AuajTi3IHCfQw-78" target="6W4QoT8AuajTi3IHCfQw-21">
          <mxGeometry width="100" height="100" relative="1" as="geometry">
            <Array as="points" />
            <mxPoint x="150.36000000000013" y="563.56" as="sourcePoint" />
          </mxGeometry>
        </mxCell>
        <mxCell id="6W4QoT8AuajTi3IHCfQw-73" value="&amp;lt;&amp;lt;include&amp;gt;&amp;gt;" style="text;html=1;resizable=0;labelBackgroundColor=default;align=center;verticalAlign=middle;fontStyle=2;fontColor=#333333;fontSize=13.3;" vertex="1" parent="6W4QoT8AuajTi3IHCfQw-72">
          <mxGeometry x="-0.20622898808546797" relative="1" as="geometry" />
        </mxCell>
        <mxCell id="6W4QoT8AuajTi3IHCfQw-70" value="" style="html=1;jettySize=18;whiteSpace=wrap;fontSize=13;strokeColor=#333333;strokeOpacity=100;dashed=1;fixDash=1;strokeWidth=0.8;rounded=0;startArrow=none;endArrow=open;exitX=0.926;exitY=0.768;exitPerimeter=0;entryX=0.074;entryY=0.232;entryPerimeter=0;lucidId=CguDTukyIXwy;" edge="1" parent="6W4QoT8AuajTi3IHCfQw-1" source="6W4QoT8AuajTi3IHCfQw-63" target="6W4QoT8AuajTi3IHCfQw-21">
          <mxGeometry width="100" height="100" relative="1" as="geometry">
            <Array as="points" />
          </mxGeometry>
        </mxCell>
        <mxCell id="6W4QoT8AuajTi3IHCfQw-71" value="&amp;lt;&amp;lt;include&amp;gt;&amp;gt;" style="text;html=1;resizable=0;labelBackgroundColor=default;align=center;verticalAlign=middle;fontStyle=2;fontColor=#333333;fontSize=13.3;" vertex="1" parent="6W4QoT8AuajTi3IHCfQw-70">
          <mxGeometry x="-0.20622898808546797" relative="1" as="geometry" />
        </mxCell>
        <mxCell id="6W4QoT8AuajTi3IHCfQw-68" value="" style="html=1;jettySize=18;whiteSpace=wrap;fontSize=13;strokeColor=#333333;strokeOpacity=100;dashed=1;fixDash=1;strokeWidth=0.8;rounded=0;startArrow=none;endArrow=open;exitX=0.971;exitY=0.323;exitPerimeter=0;entryX=0.029;entryY=0.677;entryPerimeter=0;lucidId=bhuDHpHgtsvB;" edge="1" parent="6W4QoT8AuajTi3IHCfQw-1" source="6W4QoT8AuajTi3IHCfQw-67" target="6W4QoT8AuajTi3IHCfQw-21">
          <mxGeometry width="100" height="100" relative="1" as="geometry">
            <Array as="points" />
          </mxGeometry>
        </mxCell>
        <mxCell id="6W4QoT8AuajTi3IHCfQw-69" value="&amp;lt;&amp;lt;include&amp;gt;&amp;gt;" style="text;html=1;resizable=0;labelBackgroundColor=default;align=center;verticalAlign=middle;fontStyle=2;fontColor=#333333;fontSize=13.3;" vertex="1" parent="6W4QoT8AuajTi3IHCfQw-68">
          <mxGeometry x="-0.20622898808546797" relative="1" as="geometry" />
        </mxCell>
        <mxCell id="6W4QoT8AuajTi3IHCfQw-7" value="" style="html=1;jettySize=18;whiteSpace=wrap;overflow=block;blockSpacing=1;fontSize=13;strokeColor=#333333;strokeOpacity=100;dashed=1;fixDash=1;strokeWidth=0.8;rounded=0;startArrow=none;endArrow=open;exitX=0.719;exitY=0.953;exitPerimeter=0;entryX=0.281;entryY=0.047;entryPerimeter=0;lucidId=.Q4MsHjaNKUe;" edge="1" parent="6W4QoT8AuajTi3IHCfQw-1" source="6W4QoT8AuajTi3IHCfQw-4" target="6W4QoT8AuajTi3IHCfQw-21">
          <mxGeometry width="100" height="100" relative="1" as="geometry">
            <Array as="points" />
          </mxGeometry>
        </mxCell>
        <mxCell id="6W4QoT8AuajTi3IHCfQw-8" value="&amp;lt;&amp;lt;extend&amp;gt;&amp;gt;" style="text;html=1;resizable=0;labelBackgroundColor=default;align=center;verticalAlign=middle;fontStyle=2;fontColor=#333333;fontSize=13.3;" vertex="1" parent="6W4QoT8AuajTi3IHCfQw-7">
          <mxGeometry x="-0.20622898808546797" relative="1" as="geometry" />
        </mxCell>
        <mxCell id="6W4QoT8AuajTi3IHCfQw-58" value="" style="html=1;jettySize=18;whiteSpace=wrap;fontSize=13;strokeColor=#333333;strokeOpacity=100;dashed=1;fixDash=1;strokeWidth=0.8;rounded=0;startArrow=none;endArrow=open;exitX=0.846;exitY=0.866;exitPerimeter=0;entryX=0.32;entryY=0.029;entryPerimeter=0;lucidId=y~tDq5_zpgtW;" edge="1" parent="6W4QoT8AuajTi3IHCfQw-1" source="6W4QoT8AuajTi3IHCfQw-41" target="6W4QoT8AuajTi3IHCfQw-21">
          <mxGeometry width="100" height="100" relative="1" as="geometry">
            <Array as="points" />
          </mxGeometry>
        </mxCell>
        <mxCell id="6W4QoT8AuajTi3IHCfQw-59" value="&amp;lt;&amp;lt;include&amp;gt;&amp;gt;" style="text;html=1;resizable=0;labelBackgroundColor=default;align=center;verticalAlign=middle;fontStyle=2;fontColor=#333333;fontSize=13.3;" vertex="1" parent="6W4QoT8AuajTi3IHCfQw-58">
          <mxGeometry x="-0.20622898808546797" relative="1" as="geometry" />
        </mxCell>
        <mxCell id="6W4QoT8AuajTi3IHCfQw-28" value="Confirme reservation" style="html=1;overflow=block;blockSpacing=1;whiteSpace=wrap;ellipse;fontSize=14;fontColor=#e8e6e3;align=center;spacing=0;verticalAlign=middle;strokeColor=#ffffff;strokeOpacity=100;fillOpacity=100;rounded=1;absoluteArcSize=1;arcSize=7.5;fillColor=#3278cc;strokeWidth=0.8;lucidId=MWtD8rPZS3pk;" vertex="1" parent="6W4QoT8AuajTi3IHCfQw-1">
          <mxGeometry x="670" y="950" width="120" height="90" as="geometry" />
        </mxCell>
        <mxCell id="6W4QoT8AuajTi3IHCfQw-47" value="" style="html=1;jettySize=18;whiteSpace=wrap;fontSize=13;strokeColor=#333333;strokeOpacity=100;dashed=1;fixDash=1;strokeWidth=0.8;rounded=0;startArrow=none;endArrow=open;exitX=0.487;exitY=-0.004;exitPerimeter=0;entryX=0.513;entryY=1.004;entryPerimeter=0;lucidId=Z4tD4qm7GVld;" edge="1" parent="6W4QoT8AuajTi3IHCfQw-1" source="6W4QoT8AuajTi3IHCfQw-28" target="6W4QoT8AuajTi3IHCfQw-21">
          <mxGeometry width="100" height="100" relative="1" as="geometry">
            <Array as="points" />
          </mxGeometry>
        </mxCell>
        <mxCell id="6W4QoT8AuajTi3IHCfQw-48" value="&amp;lt;&amp;lt; include &amp;gt;&amp;gt;" style="text;html=1;resizable=0;labelBackgroundColor=default;align=center;verticalAlign=middle;fontStyle=2;fontColor=#333333;fontSize=13.3;" vertex="1" parent="6W4QoT8AuajTi3IHCfQw-47">
          <mxGeometry relative="1" as="geometry" />
        </mxCell>
        <mxCell id="6W4QoT8AuajTi3IHCfQw-2" value="visiteur" style="html=1;overflow=block;blockSpacing=1;shape=umlActor;labelPosition=center;verticalLabelPosition=bottom;verticalAlign=top;whiteSpace=nowrap;fontSize=13.3;fontColor=#333333;fontStyle=2;spacing=0;strokeColor=#333333;strokeOpacity=100;rounded=1;absoluteArcSize=1;arcSize=7.5;fillColor=#ffffff;strokeWidth=0.8;lucidId=.Q4MOHSBDm2E;" vertex="1" parent="1">
          <mxGeometry x="60" y="113" width="60" height="135" as="geometry" />
        </mxCell>
        <mxCell id="6W4QoT8AuajTi3IHCfQw-3" value="client" style="html=1;overflow=block;blockSpacing=1;shape=umlActor;labelPosition=center;verticalLabelPosition=bottom;verticalAlign=top;whiteSpace=nowrap;fontSize=13.3;fontColor=#333333;fontStyle=2;spacing=0;strokeColor=#333333;strokeOpacity=100;rounded=1;absoluteArcSize=1;arcSize=7.5;fillColor=#ffffff;strokeWidth=0.8;lucidId=.Q4MG143k2o2;" vertex="1" parent="1">
          <mxGeometry x="60" y="360" width="60" height="135" as="geometry" />
        </mxCell>
        <mxCell id="6W4QoT8AuajTi3IHCfQw-6" value="" style="html=1;jettySize=18;whiteSpace=wrap;overflow=block;blockSpacing=1;fontSize=13;strokeColor=#333333;strokeOpacity=100;strokeWidth=0.8;rounded=0;startArrow=none;endArrow=none;exitX=0.506;exitY=0.5;exitPerimeter=0;entryX=-0.003;entryY=0.5;entryPerimeter=0;lucidId=.Q4MYe-bv_wy;" edge="1" parent="1" source="6W4QoT8AuajTi3IHCfQw-2" target="6W4QoT8AuajTi3IHCfQw-4">
          <mxGeometry width="100" height="100" relative="1" as="geometry">
            <Array as="points" />
          </mxGeometry>
        </mxCell>
        <mxCell id="6W4QoT8AuajTi3IHCfQw-17" value="Manage admin" style="html=1;overflow=block;blockSpacing=1;whiteSpace=wrap;ellipse;fontSize=13.3;fontColor=#ffffff;fontStyle=2;align=center;spacing=0;verticalAlign=middle;strokeColor=#ffffff;strokeOpacity=100;fillOpacity=100;rounded=1;absoluteArcSize=1;arcSize=7.5;fillColor=#3278cc;strokeWidth=0.8;lucidId=FMtDDbHSJ49i;" vertex="1" parent="1">
          <mxGeometry x="270" y="1440" width="120" height="90" as="geometry" />
        </mxCell>
        <mxCell id="6W4QoT8AuajTi3IHCfQw-18" value="" style="html=1;jettySize=18;whiteSpace=wrap;fontSize=13;strokeColor=#333333;strokeOpacity=100;strokeWidth=0.8;rounded=0;startArrow=none;endArrow=none;exitX=0.506;exitY=0.438;exitPerimeter=0;entryX=0.007;entryY=0.603;entryPerimeter=0;lucidId=wOtDFYhyhci-;" edge="1" parent="1" target="6W4QoT8AuajTi3IHCfQw-17">
          <mxGeometry width="100" height="100" relative="1" as="geometry">
            <Array as="points" />
            <mxPoint x="90.36000000000013" y="1514.13" as="sourcePoint" />
          </mxGeometry>
        </mxCell>
        <mxCell id="6W4QoT8AuajTi3IHCfQw-20" value="Visualiser les réservations" style="html=1;overflow=block;blockSpacing=1;whiteSpace=wrap;ellipse;fontSize=14;fontColor=#e8e6e3;align=center;spacing=0;verticalAlign=middle;strokeColor=#ffffff;strokeOpacity=100;fillOpacity=100;rounded=1;absoluteArcSize=1;arcSize=7.5;fillColor=#3278cc;strokeWidth=0.8;lucidId=OQtD_MDdPz7L;" vertex="1" parent="1">
          <mxGeometry x="180" y="1005" width="120" height="90" as="geometry" />
        </mxCell>
        <mxCell id="6W4QoT8AuajTi3IHCfQw-22" value="" style="html=1;jettySize=18;whiteSpace=wrap;fontSize=13;strokeColor=#333333;strokeOpacity=100;strokeWidth=0.8;rounded=0;startArrow=none;endArrow=none;exitX=0.517;exitY=0.519;exitPerimeter=0;entryX=-0.003;entryY=0.5;entryPerimeter=0;lucidId=JRtDEC0KQ4Wn;" edge="1" parent="1" target="6W4QoT8AuajTi3IHCfQw-56">
          <mxGeometry width="100" height="100" relative="1" as="geometry">
            <Array as="points" />
            <mxPoint x="91.01999999999975" y="1057.0650000000003" as="sourcePoint" />
          </mxGeometry>
        </mxCell>
        <mxCell id="6W4QoT8AuajTi3IHCfQw-23" value="consulter  users" style="html=1;overflow=block;blockSpacing=1;whiteSpace=wrap;ellipse;fontSize=13.3;fontColor=#ffffff;fontStyle=2;align=center;spacing=0;verticalAlign=middle;strokeColor=#ffffff;strokeOpacity=100;fillOpacity=100;rounded=1;absoluteArcSize=1;arcSize=7.5;fillColor=#3278cc;strokeWidth=0.8;lucidId=.StDmQglk3AZ;" vertex="1" parent="1">
          <mxGeometry x="165" y="870" width="120" height="90" as="geometry" />
        </mxCell>
        <mxCell id="6W4QoT8AuajTi3IHCfQw-24" value="" style="html=1;jettySize=18;whiteSpace=wrap;fontSize=13;strokeColor=#333333;strokeOpacity=100;strokeWidth=0.8;rounded=0;startArrow=none;endArrow=none;exitX=0.506;exitY=0.438;exitPerimeter=0;entryX=-0.003;entryY=0.521;entryPerimeter=0;lucidId=dStDA1D5c9Si;" edge="1" parent="1" target="6W4QoT8AuajTi3IHCfQw-20">
          <mxGeometry width="100" height="100" relative="1" as="geometry">
            <Array as="points" />
            <mxPoint x="90.36000000000013" y="1046.1300000000003" as="sourcePoint" />
          </mxGeometry>
        </mxCell>
        <mxCell id="6W4QoT8AuajTi3IHCfQw-25" value="" style="html=1;jettySize=18;whiteSpace=wrap;fontSize=13;strokeColor=#333333;strokeOpacity=100;strokeWidth=0.8;rounded=0;startArrow=none;endArrow=none;exitX=0.506;exitY=0.389;exitPerimeter=0;entryX=-0.003;entryY=0.5;entryPerimeter=0;lucidId=mStD_dO_P8ZH;" edge="1" parent="1" target="6W4QoT8AuajTi3IHCfQw-23">
          <mxGeometry width="100" height="100" relative="1" as="geometry">
            <Array as="points" />
            <mxPoint x="90.36000000000013" y="1039.5150000000003" as="sourcePoint" />
          </mxGeometry>
        </mxCell>
        <mxCell id="6W4QoT8AuajTi3IHCfQw-26" value="" style="html=1;jettySize=18;whiteSpace=wrap;fontSize=13;strokeColor=#333333;strokeOpacity=100;dashed=1;fixDash=1;strokeWidth=0.8;rounded=0;startArrow=none;endArrow=open;exitX=0.077;exitY=0.773;exitPerimeter=0;entryX=0.985;entryY=0.634;entryPerimeter=0;lucidId=3UtDc6OPxhci;" edge="1" parent="1" source="6W4QoT8AuajTi3IHCfQw-55" target="6W4QoT8AuajTi3IHCfQw-23">
          <mxGeometry width="100" height="100" relative="1" as="geometry">
            <Array as="points" />
          </mxGeometry>
        </mxCell>
        <mxCell id="6W4QoT8AuajTi3IHCfQw-27" value="&amp;lt;&amp;lt;extend&amp;gt;&amp;gt;" style="text;html=1;resizable=0;labelBackgroundColor=default;align=center;verticalAlign=middle;fontStyle=2;fontColor=#333333;fontSize=13.3;" vertex="1" parent="6W4QoT8AuajTi3IHCfQw-26">
          <mxGeometry relative="1" as="geometry" />
        </mxCell>
        <mxCell id="6W4QoT8AuajTi3IHCfQw-29" value="" style="html=1;jettySize=18;whiteSpace=wrap;fontSize=13;strokeColor=#333333;strokeOpacity=100;dashed=1;fixDash=1;strokeWidth=0.8;rounded=0;startArrow=none;endArrow=open;exitX=0.077;exitY=0.773;exitPerimeter=0;entryX=1.003;entryY=0.5;entryPerimeter=0;lucidId=MWtDw97GIsj-;" edge="1" parent="1" source="6W4QoT8AuajTi3IHCfQw-28" target="6W4QoT8AuajTi3IHCfQw-20">
          <mxGeometry width="100" height="100" relative="1" as="geometry">
            <Array as="points" />
          </mxGeometry>
        </mxCell>
        <mxCell id="6W4QoT8AuajTi3IHCfQw-30" value="&amp;lt;&amp;lt;extend&amp;gt;&amp;gt;" style="text;html=1;resizable=0;labelBackgroundColor=default;align=center;verticalAlign=middle;fontStyle=2;fontColor=#333333;fontSize=13.3;" vertex="1" parent="6W4QoT8AuajTi3IHCfQw-29">
          <mxGeometry relative="1" as="geometry" />
        </mxCell>
        <mxCell id="6W4QoT8AuajTi3IHCfQw-31" value="" style="html=1;jettySize=18;whiteSpace=wrap;fontSize=13;strokeColor=#333333;strokeOpacity=100;dashed=1;fixDash=1;strokeWidth=0.8;rounded=0;startArrow=none;endArrow=open;exitX=0.065;exitY=0.246;exitPerimeter=0;entryX=0.929;entryY=0.763;entryPerimeter=0;lucidId=8WtDymAv9Qdy;" edge="1" parent="1" source="6W4QoT8AuajTi3IHCfQw-57" target="6W4QoT8AuajTi3IHCfQw-20">
          <mxGeometry width="100" height="100" relative="1" as="geometry">
            <Array as="points" />
          </mxGeometry>
        </mxCell>
        <mxCell id="6W4QoT8AuajTi3IHCfQw-32" value="&amp;lt;&amp;lt;extend&amp;gt;&amp;gt;" style="text;html=1;resizable=0;labelBackgroundColor=default;align=center;verticalAlign=middle;fontStyle=2;fontColor=#333333;fontSize=13.3;" vertex="1" parent="6W4QoT8AuajTi3IHCfQw-31">
          <mxGeometry relative="1" as="geometry" />
        </mxCell>
        <mxCell id="6W4QoT8AuajTi3IHCfQw-33" value="SUPPRIMER ACTIVITE" style="html=1;overflow=block;blockSpacing=1;whiteSpace=wrap;ellipse;fontSize=14;fontColor=#e8e6e3;align=center;spacing=0;verticalAlign=middle;strokeColor=#ffffff;strokeOpacity=100;fillOpacity=100;rounded=1;absoluteArcSize=1;arcSize=7.5;fillColor=#3278cc;strokeWidth=0.8;lucidId=NZtDyE03JzZh;" vertex="1" parent="1">
          <mxGeometry x="615" y="1350" width="175" height="90" as="geometry" />
        </mxCell>
        <mxCell id="6W4QoT8AuajTi3IHCfQw-34" value="" style="html=1;jettySize=18;whiteSpace=wrap;fontSize=13;strokeColor=#333333;strokeOpacity=100;strokeWidth=0.8;rounded=0;startArrow=none;endArrow=none;exitX=0.499;exitY=0.509;exitPerimeter=0;entryX=0.083;entryY=0.218;entryPerimeter=0;lucidId=t0tDgsBk2i7l;" edge="1" parent="1" target="6W4QoT8AuajTi3IHCfQw-33">
          <mxGeometry width="100" height="100" relative="1" as="geometry">
            <Array as="points" />
            <mxPoint x="89.94000000000005" y="1055.7150000000001" as="sourcePoint" />
          </mxGeometry>
        </mxCell>
        <mxCell id="6W4QoT8AuajTi3IHCfQw-35" value="MODIFIER ACTIVITER" style="html=1;overflow=block;blockSpacing=1;whiteSpace=wrap;ellipse;fontSize=14;fontColor=#e8e6e3;align=left;spacing=0;verticalAlign=middle;strokeColor=#ffffff;strokeOpacity=100;fillOpacity=100;rounded=1;absoluteArcSize=1;arcSize=7.5;fillColor=#3278cc;strokeWidth=0.8;lucidId=nZtDVBokHMwB;" vertex="1" parent="1">
          <mxGeometry x="300" y="1275" width="120" height="90" as="geometry" />
        </mxCell>
        <mxCell id="6W4QoT8AuajTi3IHCfQw-36" value="" style="html=1;jettySize=18;whiteSpace=wrap;fontSize=13;strokeColor=#333333;strokeOpacity=100;strokeWidth=0.8;rounded=0;startArrow=none;endArrow=none;exitX=0.554;exitY=0.559;exitPerimeter=0;entryX=0.194;entryY=0.1;entryPerimeter=0;lucidId=B0tDxXNpU5SS;" edge="1" parent="1" target="6W4QoT8AuajTi3IHCfQw-35">
          <mxGeometry width="100" height="100" relative="1" as="geometry">
            <Array as="points" />
            <mxPoint x="93.23999999999978" y="1062.4650000000001" as="sourcePoint" />
          </mxGeometry>
        </mxCell>
        <mxCell id="6W4QoT8AuajTi3IHCfQw-37" value="" style="html=1;jettySize=18;whiteSpace=wrap;fontSize=13;strokeColor=#333333;strokeOpacity=100;dashed=1;fixDash=1;strokeWidth=0.8;rounded=0;startArrow=none;endArrow=open;exitX=0.936;exitY=0.249;exitPerimeter=0;entryX=0.181;entryY=0.89;entryPerimeter=0;lucidId=H3tDbSjofF47;" edge="1" parent="1" source="6W4QoT8AuajTi3IHCfQw-23" target="6W4QoT8AuajTi3IHCfQw-21">
          <mxGeometry width="100" height="100" relative="1" as="geometry">
            <Array as="points" />
          </mxGeometry>
        </mxCell>
        <mxCell id="6W4QoT8AuajTi3IHCfQw-38" value="&amp;lt;&amp;lt; include &amp;gt;&amp;gt;" style="text;html=1;resizable=0;labelBackgroundColor=default;align=center;verticalAlign=middle;fontStyle=2;fontColor=#333333;fontSize=13.3;" vertex="1" parent="6W4QoT8AuajTi3IHCfQw-37">
          <mxGeometry relative="1" as="geometry" />
        </mxCell>
        <mxCell id="6W4QoT8AuajTi3IHCfQw-39" value="" style="html=1;jettySize=18;whiteSpace=wrap;fontSize=13;strokeColor=#333333;strokeOpacity=100;dashed=1;fixDash=1;strokeWidth=0.8;rounded=0;startArrow=none;endArrow=open;exitX=0.763;exitY=0.07;exitPerimeter=0;entryX=0.507;entryY=1.004;entryPerimeter=0;lucidId=H4tD8NbDcM4t;" edge="1" parent="1" source="6W4QoT8AuajTi3IHCfQw-55" target="6W4QoT8AuajTi3IHCfQw-21">
          <mxGeometry width="100" height="100" relative="1" as="geometry">
            <Array as="points" />
          </mxGeometry>
        </mxCell>
        <mxCell id="6W4QoT8AuajTi3IHCfQw-40" value="&amp;lt;&amp;lt; include &amp;gt;&amp;gt;" style="text;html=1;resizable=0;labelBackgroundColor=default;align=center;verticalAlign=middle;fontStyle=2;fontColor=#333333;fontSize=13.3;" vertex="1" parent="6W4QoT8AuajTi3IHCfQw-39">
          <mxGeometry relative="1" as="geometry" />
        </mxCell>
        <mxCell id="6W4QoT8AuajTi3IHCfQw-43" value="" style="html=1;jettySize=18;whiteSpace=wrap;fontSize=13;strokeColor=#333333;strokeOpacity=100;dashed=1;fixDash=1;strokeWidth=0.8;rounded=0;startArrow=none;endArrow=open;exitX=0.634;exitY=0.014;exitPerimeter=0;entryX=0.328;entryY=0.974;entryPerimeter=0;lucidId=76tD7qUcDf9R;" edge="1" parent="1" source="6W4QoT8AuajTi3IHCfQw-20" target="6W4QoT8AuajTi3IHCfQw-21">
          <mxGeometry width="100" height="100" relative="1" as="geometry">
            <Array as="points" />
          </mxGeometry>
        </mxCell>
        <mxCell id="6W4QoT8AuajTi3IHCfQw-44" value="&amp;lt;&amp;lt; include &amp;gt;&amp;gt;" style="text;html=1;resizable=0;labelBackgroundColor=default;align=center;verticalAlign=middle;fontStyle=2;fontColor=#333333;fontSize=13.3;" vertex="1" parent="6W4QoT8AuajTi3IHCfQw-43">
          <mxGeometry relative="1" as="geometry" />
        </mxCell>
        <mxCell id="6W4QoT8AuajTi3IHCfQw-45" value="" style="html=1;jettySize=18;whiteSpace=wrap;fontSize=13;strokeColor=#333333;strokeOpacity=100;dashed=1;fixDash=1;strokeWidth=0.8;rounded=0;startArrow=none;endArrow=open;exitX=0.711;exitY=0.043;exitPerimeter=0;entryX=0.289;entryY=0.957;entryPerimeter=0;lucidId=27tDSswEAOkC;" edge="1" parent="1" source="6W4QoT8AuajTi3IHCfQw-56" target="6W4QoT8AuajTi3IHCfQw-21">
          <mxGeometry width="100" height="100" relative="1" as="geometry">
            <Array as="points" />
          </mxGeometry>
        </mxCell>
        <mxCell id="6W4QoT8AuajTi3IHCfQw-46" value="&amp;lt;&amp;lt;include&amp;gt;&amp;gt;" style="text;html=1;resizable=0;labelBackgroundColor=default;align=center;verticalAlign=middle;fontSize=13;" vertex="1" parent="6W4QoT8AuajTi3IHCfQw-45">
          <mxGeometry x="0.3610209723094151" relative="1" as="geometry" />
        </mxCell>
        <mxCell id="6W4QoT8AuajTi3IHCfQw-49" value="" style="html=1;jettySize=18;whiteSpace=wrap;fontSize=13;strokeColor=#333333;strokeOpacity=100;dashed=1;fixDash=1;strokeWidth=0.8;rounded=0;startArrow=none;endArrow=open;exitX=0.602;exitY=0.007;exitPerimeter=0;entryX=0.398;entryY=0.993;entryPerimeter=0;lucidId=h9tD~VJ7v9Pn;" edge="1" parent="1" source="6W4QoT8AuajTi3IHCfQw-33" target="6W4QoT8AuajTi3IHCfQw-21">
          <mxGeometry width="100" height="100" relative="1" as="geometry">
            <Array as="points" />
          </mxGeometry>
        </mxCell>
        <mxCell id="6W4QoT8AuajTi3IHCfQw-50" value="&amp;lt;&amp;lt;include&amp;gt;&amp;gt;" style="text;html=1;resizable=0;labelBackgroundColor=default;align=center;verticalAlign=middle;fontSize=13;" vertex="1" parent="6W4QoT8AuajTi3IHCfQw-49">
          <mxGeometry x="0.3610209723094151" relative="1" as="geometry" />
        </mxCell>
        <mxCell id="6W4QoT8AuajTi3IHCfQw-51" value="" style="html=1;jettySize=18;whiteSpace=wrap;fontSize=13;strokeColor=#333333;strokeOpacity=100;dashed=1;fixDash=1;strokeWidth=0.8;rounded=0;startArrow=none;endArrow=open;exitX=0.658;exitY=0.021;exitPerimeter=0;entryX=0.342;entryY=0.979;entryPerimeter=0;lucidId=09tDtWw9U_ML;" edge="1" parent="1" source="6W4QoT8AuajTi3IHCfQw-57" target="6W4QoT8AuajTi3IHCfQw-21">
          <mxGeometry width="100" height="100" relative="1" as="geometry">
            <Array as="points" />
          </mxGeometry>
        </mxCell>
        <mxCell id="6W4QoT8AuajTi3IHCfQw-52" value="&amp;lt;&amp;lt;include&amp;gt;&amp;gt;" style="text;html=1;resizable=0;labelBackgroundColor=default;align=center;verticalAlign=middle;fontSize=13;" vertex="1" parent="6W4QoT8AuajTi3IHCfQw-51">
          <mxGeometry x="0.3610209723094151" relative="1" as="geometry" />
        </mxCell>
        <mxCell id="6W4QoT8AuajTi3IHCfQw-53" value="" style="html=1;jettySize=18;whiteSpace=wrap;fontSize=13;strokeColor=#333333;strokeOpacity=100;dashed=1;fixDash=1;strokeWidth=0.8;rounded=0;startArrow=none;endArrow=open;exitX=0.5;exitY=-0.004;exitPerimeter=0;lucidId=q_tDrgrCTeuL;" edge="1" parent="1" source="6W4QoT8AuajTi3IHCfQw-35">
          <mxGeometry width="100" height="100" relative="1" as="geometry">
            <Array as="points" />
            <mxPoint x="847" y="665" as="targetPoint" />
          </mxGeometry>
        </mxCell>
        <mxCell id="6W4QoT8AuajTi3IHCfQw-54" value="&amp;lt;&amp;lt;include&amp;gt;&amp;gt;" style="text;html=1;resizable=0;labelBackgroundColor=default;align=center;verticalAlign=middle;fontSize=13;" vertex="1" parent="6W4QoT8AuajTi3IHCfQw-53">
          <mxGeometry x="0.3610209723094151" relative="1" as="geometry" />
        </mxCell>
        <mxCell id="6W4QoT8AuajTi3IHCfQw-55" value="&lt;div style=&quot;display: flex; justify-content: center; text-align: center; align-items: baseline; font-size: 0; line-height: 1.25;margin-top: -2px;&quot;&gt;&lt;span&gt;&lt;span style=&quot;font-size:14px;color:#e8e6e3;&quot;&gt;Archivé/ bannir&#xa;&lt;/span&gt;&lt;/span&gt;&lt;/div&gt;&lt;div style=&quot;display: flex; justify-content: center; text-align: center; align-items: baseline; font-size: 0; line-height: 1.25;margin-top: -2px;&quot;&gt;&lt;span&gt;&lt;span style=&quot;font-size:14px;color:#e8e6e3;&quot;&gt;user&lt;/span&gt;&lt;span style=&quot;font-size:13.3px;color:#ffffff;font-style: italic;&quot;&gt; &lt;/span&gt;&lt;/span&gt;&lt;/div&gt;" style="html=1;overflow=block;blockSpacing=1;whiteSpace=wrap;ellipse;fontSize=13;spacing=0;verticalAlign=middle;strokeColor=#ffffff;strokeOpacity=100;fillOpacity=100;rounded=1;absoluteArcSize=1;arcSize=7.5;fillColor=#3278cc;strokeWidth=0.8;lucidId=1TtD-e09_3qA;" vertex="1" parent="1">
          <mxGeometry x="405" y="920" width="120" height="90" as="geometry" />
        </mxCell>
        <mxCell id="6W4QoT8AuajTi3IHCfQw-56" value="AJOUTER ACTIVITER" style="html=1;overflow=block;blockSpacing=1;whiteSpace=wrap;ellipse;fontSize=14;fontColor=#e8e6e3;align=left;spacing=0;verticalAlign=middle;strokeColor=#ffffff;strokeOpacity=100;fillOpacity=100;rounded=1;absoluteArcSize=1;arcSize=7.5;fillColor=#3278cc;strokeWidth=0.8;lucidId=6QtDfodyq55U;" vertex="1" parent="1">
          <mxGeometry x="465" y="1170" width="120" height="90" as="geometry" />
        </mxCell>
        <mxCell id="6W4QoT8AuajTi3IHCfQw-57" value="annuller reservation" style="html=1;overflow=block;blockSpacing=1;whiteSpace=wrap;ellipse;fontSize=14;fontColor=#e8e6e3;align=center;spacing=0;verticalAlign=middle;strokeColor=#ffffff;strokeOpacity=100;fillOpacity=100;rounded=1;absoluteArcSize=1;arcSize=7.5;fillColor=#3278cc;strokeWidth=0.8;lucidId=8WtDr_JK0m1Z;" vertex="1" parent="1">
          <mxGeometry x="600" y="1095" width="120" height="90" as="geometry" />
        </mxCell>
        <mxCell id="6W4QoT8AuajTi3IHCfQw-60" value="consulter les détails de chaque activité." style="html=1;overflow=block;blockSpacing=1;whiteSpace=wrap;ellipse;fontSize=14;fontColor=#333333;spacing=0;verticalAlign=middle;strokeColor=#ffffff;strokeOpacity=100;fillOpacity=100;rounded=1;absoluteArcSize=1;arcSize=7.5;fillColor=#3278cc;strokeWidth=0.8;lucidId=VbuDiCNXi69H;" vertex="1" parent="1">
          <mxGeometry x="717" y="165" width="120" height="90" as="geometry" />
        </mxCell>
        <mxCell id="6W4QoT8AuajTi3IHCfQw-61" value="" style="html=1;jettySize=18;whiteSpace=wrap;fontSize=13;strokeColor=#333333;strokeOpacity=100;dashed=1;fixDash=1;strokeWidth=0.8;rounded=0;startArrow=none;endArrow=open;exitX=0.595;exitY=0.995;exitPerimeter=0;entryX=0.5;entryY=-0.004;entryPerimeter=0;lucidId=5cuDoyGK49-1;" edge="1" parent="1" source="6W4QoT8AuajTi3IHCfQw-60" target="6W4QoT8AuajTi3IHCfQw-21">
          <mxGeometry width="100" height="100" relative="1" as="geometry">
            <Array as="points" />
          </mxGeometry>
        </mxCell>
        <mxCell id="6W4QoT8AuajTi3IHCfQw-62" value="&amp;lt;&amp;lt;extend&amp;gt;&amp;gt;" style="text;html=1;resizable=0;labelBackgroundColor=default;align=center;verticalAlign=middle;fontStyle=2;fontColor=#333333;fontSize=13.3;" vertex="1" parent="6W4QoT8AuajTi3IHCfQw-61">
          <mxGeometry x="-0.20622898808546797" relative="1" as="geometry" />
        </mxCell>
        <mxCell id="6W4QoT8AuajTi3IHCfQw-64" value="creat admin" style="html=1;overflow=block;blockSpacing=1;whiteSpace=wrap;ellipse;fontSize=13.3;fontColor=#ffffff;fontStyle=2;align=center;spacing=0;verticalAlign=middle;strokeColor=#ffffff;strokeOpacity=100;fillOpacity=100;rounded=1;absoluteArcSize=1;arcSize=7.5;fillColor=#3278cc;strokeWidth=0.8;lucidId=feuDx8V2zJ7w;" vertex="1" parent="1">
          <mxGeometry x="270" y="1545" width="120" height="90" as="geometry" />
        </mxCell>
        <mxCell id="6W4QoT8AuajTi3IHCfQw-66" value="" style="html=1;jettySize=18;whiteSpace=wrap;fontSize=13;strokeColor=#333333;strokeOpacity=100;strokeWidth=0.8;rounded=0;startArrow=none;endArrow=none;exitX=0.506;exitY=0.438;exitPerimeter=0;entryX=-0.003;entryY=0.5;entryPerimeter=0;lucidId=xfuD-PNqVpev;" edge="1" parent="1" target="6W4QoT8AuajTi3IHCfQw-64">
          <mxGeometry width="100" height="100" relative="1" as="geometry">
            <Array as="points" />
            <mxPoint x="90.36000000000013" y="1514.13" as="sourcePoint" />
          </mxGeometry>
        </mxCell>
        <mxCell id="6W4QoT8AuajTi3IHCfQw-102" style="edgeStyle=orthogonalEdgeStyle;rounded=0;orthogonalLoop=1;jettySize=auto;html=1;" edge="1" parent="1" source="6W4QoT8AuajTi3IHCfQw-79" target="6W4QoT8AuajTi3IHCfQw-80">
          <mxGeometry relative="1" as="geometry" />
        </mxCell>
        <mxCell id="6W4QoT8AuajTi3IHCfQw-79" value="Sadmin" style="html=1;overflow=block;blockSpacing=1;shape=umlActor;labelPosition=center;verticalLabelPosition=bottom;verticalAlign=top;whiteSpace=nowrap;fontSize=13.3;fontColor=#333333;fontStyle=2;spacing=0;strokeColor=#333333;strokeOpacity=100;rounded=1;absoluteArcSize=1;arcSize=7.5;fillColor=#ffffff;strokeWidth=0.8;lucidId=.Q4MG143k2o2;" vertex="1" parent="1">
          <mxGeometry x="60" y="1450" width="60" height="135" as="geometry" />
        </mxCell>
        <mxCell id="6W4QoT8AuajTi3IHCfQw-80" value="admin" style="html=1;overflow=block;blockSpacing=1;shape=umlActor;labelPosition=center;verticalLabelPosition=bottom;verticalAlign=top;whiteSpace=nowrap;fontSize=13.3;fontColor=#333333;fontStyle=2;spacing=0;strokeColor=#333333;strokeOpacity=100;rounded=1;absoluteArcSize=1;arcSize=7.5;fillColor=#ffffff;strokeWidth=0.8;lucidId=.Q4MG143k2o2;" vertex="1" parent="1">
          <mxGeometry x="50" y="982.5" width="60" height="137.5" as="geometry" />
        </mxCell>
        <mxCell id="6W4QoT8AuajTi3IHCfQw-81" value="" style="endArrow=none;html=1;rounded=0;exitX=0.5;exitY=0.5;exitDx=0;exitDy=0;exitPerimeter=0;entryX=0;entryY=0.5;entryDx=0;entryDy=0;" edge="1" parent="1" source="6W4QoT8AuajTi3IHCfQw-2" target="6W4QoT8AuajTi3IHCfQw-60">
          <mxGeometry width="50" height="50" relative="1" as="geometry">
            <mxPoint x="490" y="340" as="sourcePoint" />
            <mxPoint x="540" y="290" as="targetPoint" />
          </mxGeometry>
        </mxCell>
        <mxCell id="6W4QoT8AuajTi3IHCfQw-83" value="" style="endArrow=none;html=1;rounded=0;exitX=0.467;exitY=0.437;exitDx=0;exitDy=0;exitPerimeter=0;" edge="1" parent="1" source="6W4QoT8AuajTi3IHCfQw-2" target="6W4QoT8AuajTi3IHCfQw-82">
          <mxGeometry width="50" height="50" relative="1" as="geometry">
            <mxPoint x="490" y="430" as="sourcePoint" />
            <mxPoint x="540" y="380" as="targetPoint" />
          </mxGeometry>
        </mxCell>
        <mxCell id="6W4QoT8AuajTi3IHCfQw-84" value="" style="endArrow=none;html=1;rounded=0;" edge="1" parent="1" source="6W4QoT8AuajTi3IHCfQw-3" target="6W4QoT8AuajTi3IHCfQw-41">
          <mxGeometry width="50" height="50" relative="1" as="geometry">
            <mxPoint x="100" y="191" as="sourcePoint" />
            <mxPoint x="727" y="220" as="targetPoint" />
          </mxGeometry>
        </mxCell>
        <mxCell id="6W4QoT8AuajTi3IHCfQw-85" value="" style="endArrow=none;html=1;rounded=0;entryX=0.042;entryY=0.222;entryDx=0;entryDy=0;entryPerimeter=0;" edge="1" parent="1" target="6W4QoT8AuajTi3IHCfQw-63">
          <mxGeometry width="50" height="50" relative="1" as="geometry">
            <mxPoint x="130" y="425" as="sourcePoint" />
            <mxPoint x="318" y="347" as="targetPoint" />
          </mxGeometry>
        </mxCell>
        <mxCell id="6W4QoT8AuajTi3IHCfQw-86" value="" style="endArrow=none;html=1;rounded=0;entryX=0;entryY=0;entryDx=0;entryDy=0;" edge="1" parent="1" target="6W4QoT8AuajTi3IHCfQw-42">
          <mxGeometry width="50" height="50" relative="1" as="geometry">
            <mxPoint x="140" y="435" as="sourcePoint" />
            <mxPoint x="320" y="420" as="targetPoint" />
          </mxGeometry>
        </mxCell>
        <mxCell id="6W4QoT8AuajTi3IHCfQw-88" value="" style="endArrow=none;html=1;rounded=0;" edge="1" parent="1" target="6W4QoT8AuajTi3IHCfQw-78">
          <mxGeometry width="50" height="50" relative="1" as="geometry">
            <mxPoint x="150" y="450" as="sourcePoint" />
            <mxPoint x="241" y="623" as="targetPoint" />
          </mxGeometry>
        </mxCell>
        <mxCell id="6W4QoT8AuajTi3IHCfQw-89" value="" style="endArrow=none;html=1;rounded=0;" edge="1" parent="1" target="6W4QoT8AuajTi3IHCfQw-67">
          <mxGeometry width="50" height="50" relative="1" as="geometry">
            <mxPoint x="130" y="490" as="sourcePoint" />
            <mxPoint x="248" y="608" as="targetPoint" />
          </mxGeometry>
        </mxCell>
        <mxCell id="6W4QoT8AuajTi3IHCfQw-90" value="" style="endArrow=none;html=1;rounded=0;entryX=0;entryY=0.5;entryDx=0;entryDy=0;" edge="1" parent="1" target="6W4QoT8AuajTi3IHCfQw-4">
          <mxGeometry width="50" height="50" relative="1" as="geometry">
            <mxPoint x="130" y="425" as="sourcePoint" />
            <mxPoint x="318" y="347" as="targetPoint" />
          </mxGeometry>
        </mxCell>
        <mxCell id="6W4QoT8AuajTi3IHCfQw-91" value="" style="endArrow=none;html=1;rounded=0;entryX=0;entryY=1;entryDx=0;entryDy=0;" edge="1" parent="1" target="6W4QoT8AuajTi3IHCfQw-60">
          <mxGeometry width="50" height="50" relative="1" as="geometry">
            <mxPoint x="140" y="435" as="sourcePoint" />
            <mxPoint x="580" y="165" as="targetPoint" />
          </mxGeometry>
        </mxCell>
        <mxCell id="6W4QoT8AuajTi3IHCfQw-96" value="" style="html=1;jettySize=18;whiteSpace=wrap;overflow=block;blockSpacing=1;fontSize=13;strokeColor=#333333;strokeOpacity=100;dashed=1;fixDash=1;strokeWidth=0.8;rounded=0;startArrow=none;endArrow=open;exitX=0;exitY=1;entryX=0.983;entryY=0.322;lucidId=.Q4MsHjaNKUe;entryDx=0;entryDy=0;exitDx=0;exitDy=0;entryPerimeter=0;" edge="1" parent="1" source="6W4QoT8AuajTi3IHCfQw-60" target="6W4QoT8AuajTi3IHCfQw-42">
          <mxGeometry width="100" height="100" relative="1" as="geometry">
            <Array as="points" />
            <mxPoint x="666" y="206" as="sourcePoint" />
            <mxPoint x="869" y="599" as="targetPoint" />
          </mxGeometry>
        </mxCell>
        <mxCell id="6W4QoT8AuajTi3IHCfQw-97" value="&amp;lt;&amp;lt;extend&amp;gt;&amp;gt;" style="text;html=1;resizable=0;labelBackgroundColor=default;align=center;verticalAlign=middle;fontStyle=2;fontColor=#333333;fontSize=13.3;" vertex="1" parent="6W4QoT8AuajTi3IHCfQw-96">
          <mxGeometry x="-0.20622898808546797" relative="1" as="geometry" />
        </mxCell>
        <mxCell id="6W4QoT8AuajTi3IHCfQw-98" value="" style="html=1;jettySize=18;whiteSpace=wrap;overflow=block;blockSpacing=1;fontSize=13;strokeColor=#333333;strokeOpacity=100;dashed=1;fixDash=1;strokeWidth=0.8;rounded=0;startArrow=none;endArrow=open;exitX=0;exitY=1;entryX=0.936;entryY=0.208;lucidId=.Q4MsHjaNKUe;entryDx=0;entryDy=0;exitDx=0;exitDy=0;entryPerimeter=0;" edge="1" parent="1" target="6W4QoT8AuajTi3IHCfQw-78">
          <mxGeometry width="100" height="100" relative="1" as="geometry">
            <Array as="points" />
            <mxPoint x="744" y="252" as="sourcePoint" />
            <mxPoint x="488" y="549" as="targetPoint" />
          </mxGeometry>
        </mxCell>
        <mxCell id="6W4QoT8AuajTi3IHCfQw-99" value="&amp;lt;&amp;lt;extend&amp;gt;&amp;gt;" style="text;html=1;resizable=0;labelBackgroundColor=default;align=center;verticalAlign=middle;fontStyle=2;fontColor=#333333;fontSize=13.3;" vertex="1" parent="6W4QoT8AuajTi3IHCfQw-98">
          <mxGeometry x="-0.20622898808546797" relative="1" as="geometry" />
        </mxCell>
        <mxCell id="6W4QoT8AuajTi3IHCfQw-100" value="" style="html=1;jettySize=18;whiteSpace=wrap;fontSize=13;strokeColor=#333333;strokeOpacity=100;dashed=1;fixDash=1;strokeWidth=0.8;rounded=0;startArrow=none;endArrow=open;lucidId=y~tDq5_zpgtW;" edge="1" parent="1" source="6W4QoT8AuajTi3IHCfQw-4" target="6W4QoT8AuajTi3IHCfQw-60">
          <mxGeometry width="100" height="100" relative="1" as="geometry">
            <Array as="points" />
            <mxPoint x="504" y="404" as="sourcePoint" />
            <mxPoint x="620" y="200" as="targetPoint" />
          </mxGeometry>
        </mxCell>
        <mxCell id="6W4QoT8AuajTi3IHCfQw-101" value="&amp;lt;&amp;lt;include&amp;gt;&amp;gt;" style="text;html=1;resizable=0;labelBackgroundColor=default;align=center;verticalAlign=middle;fontStyle=2;fontColor=#333333;fontSize=13.3;" vertex="1" parent="6W4QoT8AuajTi3IHCfQw-100">
          <mxGeometry x="-0.20622898808546797" relative="1" as="geometry" />
        </mxCell>
      </root>
    </mxGraphModel>
  </diagram>
</mxfile>
